<svg width="179" height="29" viewBox="0 0 179 29" fill="none" xmlns="http://www.w3.org/2000/svg">
<path d="M42.9444 7C42.4444 6.6 41.9444 6.4 40.7444 6.3L31.7444 6C31.1444 6 30.6444 5.90001 30.2444 5.40001C30.1444 5.30001 29.9444 5.10001 29.9444 4.70001C29.9444 4.40001 30.1444 4.1 30.2444 4C30.6444 3.5 31.1444 3.5 31.7444 3.5C32.6444 3.5 33.4444 3.40001 34.3444 3.40001C35.4444 3.40001 36.5443 3.4 37.6443 3.5C38.8443 3.6 39.0444 3.80001 39.3444 4.90001H43.9444C43.9444 3.60001 43.9444 2.2 42.9444 1.3C42.1444 0.600003 41.0444 0.400003 40.7444 0.300003L39.9444 0.200012C38.1444 0.100012 36.3444 0 34.5444 0C32.9444 0 31.2443 0.100006 29.6443 0.100006C28.3443 0.200006 27.2444 0.400003 26.3444 1.3C26.0444 1.6 25.8444 1.9 25.7444 2.3C25.3444 3.3 25.3444 4.9 25.3444 5C25.3444 6.5 25.7444 7.5 26.2444 8C26.9444 8.8 28.0444 9 28.3444 9C28.5444 9 28.7444 9.10001 29.0444 9.10001C29.7444 9.10001 30.4443 9.20001 31.1443 9.20001C33.3443 9.30001 35.5444 9.30001 37.7444 9.40001C38.8444 9.50001 39.2443 9.5 39.6443 10C39.8443 10.3 39.8444 10.5 39.8444 10.7C39.8444 11.2 39.4444 11.7 38.9444 11.9C38.4444 12.1 37.8443 12 37.6443 12C36.6443 12 35.5444 12.1 34.5444 12C33.5444 12 32.6443 11.9 31.6443 11.9C30.6443 11.8 30.2444 11.6 30.0444 11.1C29.9444 10.8 29.9444 10.6 29.9444 10.2H25.2444C25.2444 11.3 25.2444 13 26.0444 13.9C26.7444 14.7 27.9444 14.9 28.9444 15.1C30.9444 15.2 32.9444 15.3 34.9444 15.3C36.8444 15.3 38.6444 15.2 40.4444 15.1C41.3444 15 42.3444 14.8 43.0444 14.3C43.3444 14.1 43.4443 13.9 43.6443 13.7C44.1443 13 44.4444 12.2 44.4444 10.5C44.4444 8.5 43.7444 7.6 42.9444 7Z" fill="black"/>
<path d="M48.1443 15.4001H64.9443V12H52.7443V9.30005H64.3443V6.20006H52.7443V3.70006H64.9443V0.300049H48.1443V15.4001Z" fill="black"/>
<path d="M87.1442 5.00002C87.1442 3.70002 87.0442 2.70003 86.1442 1.70003C85.5442 1.00003 84.7442 0.400024 82.7442 0.400024C82.3442 0.400024 81.9443 0.400024 81.4443 0.400024H68.8442V15.5H73.6442V11.6H81.4443C82.7443 11.6 84.5442 11.6 85.6442 10.7C87.3442 9.40003 87.1442 6.20002 87.1442 6.10002C87.1442 5.80002 87.1442 5.40002 87.1442 5.00002ZM82.2442 7.10002C81.8442 7.90002 81.2442 8.00002 80.2442 7.90002H73.5443V3.90002H80.5443C81.1443 4.00002 81.7443 4.00002 82.0443 4.40002C82.5443 4.90002 82.5443 5.90002 82.5443 6.00002C82.5443 6.50002 82.3442 6.90002 82.2442 7.10002Z" fill="black"/>
<path d="M107.944 1.10005C106.744 0.100051 105.244 0.200048 103.744 0.300048H90.0444V15.4001H94.7444V11.6001H102.644C103.244 11.7001 103.844 11.7001 104.144 12.2001C104.344 12.6001 104.444 13.0001 104.444 13.4001V15.4001H109.144V12.8C109.144 12 109.144 11.3001 108.644 10.7001C107.944 9.80006 106.744 9.70006 105.444 9.70006C106.544 9.50006 108.044 9.30006 108.744 8.20006C108.944 7.90006 109.044 7.60004 109.144 7.50004C109.444 6.60004 109.444 5.20004 109.444 5.00004C109.444 4.80005 109.444 3.10004 108.844 2.00004C108.644 1.80004 108.444 1.50005 107.944 1.10005ZM104.044 7.60005C103.644 7.80005 103.144 7.80005 102.244 7.80005H94.8445V3.90005H102.644C103.344 3.90005 103.944 4.00005 104.344 4.40005C104.744 4.90005 104.744 5.90004 104.744 6.00004C104.744 6.10004 104.744 7.20005 104.044 7.60005Z" fill="black"/>
<path d="M133.044 2.49994C132.144 0.899939 130.544 0.599939 129.944 0.499939C129.744 0.499939 129.444 0.399948 129.244 0.399948C127.044 0.299948 124.844 0.199951 122.744 0.199951C120.844 0.199951 119.044 0.299948 117.244 0.399948C116.344 0.499948 115.644 0.699945 114.844 1.09995C113.744 1.69995 113.244 2.69995 112.944 3.89995C112.944 4.09995 112.844 4.39995 112.844 4.59995L112.744 8.99994C112.744 10.8999 112.744 13.2999 114.644 14.4999C115.844 15.2999 117.144 15.3999 118.444 15.4999C120.144 15.4999 121.844 15.5999 123.644 15.5999C125.144 15.5999 126.644 15.5999 128.144 15.4999C129.844 15.3999 131.544 15.1999 132.744 13.7999C133.444 12.8999 133.644 11.9999 133.744 10.8999C133.744 10.1999 133.844 9.49994 133.844 8.79994C133.844 7.69994 133.844 6.59995 133.844 5.59995C133.644 4.39995 133.544 3.39994 133.044 2.49994ZM129.044 9.49994C128.944 10.1999 128.844 10.4999 128.644 10.8999C128.144 11.6999 127.244 11.7999 126.344 11.8999H120.244C118.944 11.7999 118.244 11.5999 117.844 11.0999C117.544 10.5999 117.444 9.69995 117.344 8.39995C117.344 7.19995 117.344 6.39995 117.444 5.89995C117.444 5.79995 117.544 5.39995 117.744 5.09995C117.844 4.99995 117.944 4.79994 118.244 4.49994C118.644 4.19994 119.044 4.09994 120.144 3.99994H126.544C127.744 4.09994 128.644 4.19995 128.944 5.39995C129.044 5.69995 129.044 5.99994 129.044 6.29994V9.49994Z" fill="black"/>
<path d="M154.744 7C154.244 6.6 153.744 6.4 152.544 6.3L143.544 6C142.944 6 142.444 5.90001 142.044 5.40001C141.944 5.30001 141.744 5.10001 141.744 4.70001C141.744 4.40001 141.944 4.1 142.044 4C142.444 3.5 142.944 3.5 143.544 3.5C144.444 3.5 145.244 3.40001 146.144 3.40001C147.244 3.40001 148.344 3.4 149.444 3.5C150.644 3.6 150.844 3.80001 151.144 4.90001H155.744C155.744 3.60001 155.744 2.2 154.744 1.3C153.944 0.600003 152.844 0.400003 152.544 0.300003L151.744 0.200012C149.944 0.100012 148.144 0 146.344 0C144.744 0 143.044 0.100006 141.444 0.100006C140.144 0.200006 139.044 0.400003 138.144 1.3C137.844 1.6 137.644 1.9 137.544 2.3C137.144 3.3 137.144 4.9 137.144 5C137.144 6.5 137.544 7.5 138.044 8C138.744 8.8 139.844 9 140.144 9C140.344 9 140.544 9.10001 140.844 9.10001C141.544 9.10001 142.244 9.20001 142.944 9.20001C145.144 9.30001 147.344 9.30001 149.544 9.40001C150.644 9.50001 151.044 9.5 151.444 10C151.644 10.3 151.644 10.5 151.644 10.7C151.644 11.2 151.244 11.7 150.744 11.9C150.244 12.1 149.644 12 149.444 12C148.444 12 147.344 12.1 146.344 12C145.344 12 144.444 11.9 143.444 11.9C142.444 11.8 142.044 11.6 141.844 11.1C141.744 10.8 141.744 10.6 141.744 10.2H137.044C137.044 11.3 137.044 13 137.844 13.9C138.544 14.7 139.744 14.9 140.744 15.1C142.744 15.2 144.744 15.3 146.744 15.3C148.644 15.3 150.444 15.2 152.244 15.1C153.144 15 154.144 14.8 154.844 14.3C155.144 14.1 155.244 13.9 155.444 13.7C155.944 13 156.244 12.2 156.244 10.5C156.244 8.5 155.544 7.6 154.744 7Z" fill="black"/>
<path d="M178.144 6.10002C178.144 5.70002 178.144 5.40002 178.144 5.00002C178.144 3.70002 178.044 2.70003 177.144 1.70003C176.544 1.00003 175.744 0.400024 173.744 0.400024C173.344 0.400024 172.944 0.400024 172.444 0.400024H159.844V15.5H164.644V11.6H172.444C173.744 11.6 175.544 11.6 176.644 10.7C178.344 9.50003 178.144 6.30002 178.144 6.10002ZM173.244 7.10002C172.844 7.90002 172.244 8.00002 171.244 7.90002H164.544V3.90002H171.544C172.144 4.00002 172.744 4.00002 173.044 4.40002C173.544 4.90002 173.544 5.90002 173.544 6.00002C173.544 6.50002 173.444 6.90002 173.244 7.10002Z" fill="black"/>
<path d="M42.9444 7C42.4444 6.6 41.9444 6.4 40.7444 6.3L31.7444 6C31.1444 6 30.6444 5.90001 30.2444 5.40001C30.1444 5.30001 29.9444 5.10001 29.9444 4.70001C29.9444 4.40001 30.1444 4.1 30.2444 4C30.6444 3.5 31.1444 3.5 31.7444 3.5C32.6444 3.5 33.4444 3.40001 34.3444 3.40001C35.4444 3.40001 36.5443 3.4 37.6443 3.5C38.8443 3.6 39.0444 3.80001 39.3444 4.90001H43.9444C43.9444 3.60001 43.9444 2.2 42.9444 1.3C42.1444 0.600003 41.0444 0.400003 40.7444 0.300003L39.9444 0.200012C38.1444 0.100012 36.3444 0 34.5444 0C32.9444 0 31.2443 0.100006 29.6443 0.100006C28.3443 0.200006 27.2444 0.400003 26.3444 1.3C26.0444 1.6 25.8444 1.9 25.7444 2.3C25.3444 3.3 25.3444 4.9 25.3444 5C25.3444 6.5 25.7444 7.5 26.2444 8C26.9444 8.8 28.0444 9 28.3444 9C28.5444 9 28.7444 9.10001 29.0444 9.10001C29.7444 9.10001 30.4443 9.20001 31.1443 9.20001C33.3443 9.30001 35.5444 9.30001 37.7444 9.40001C38.8444 9.50001 39.2443 9.5 39.6443 10C39.8443 10.3 39.8444 10.5 39.8444 10.7C39.8444 11.2 39.4444 11.7 38.9444 11.9C38.4444 12.1 37.8443 12 37.6443 12C36.6443 12 35.5444 12.1 34.5444 12C33.5444 12 32.6443 11.9 31.6443 11.9C30.6443 11.8 30.2444 11.6 30.0444 11.1C29.9444 10.8 29.9444 10.6 29.9444 10.2H25.2444C25.2444 11.3 25.2444 13 26.0444 13.9C26.7444 14.7 27.9444 14.9 28.9444 15.1C30.9444 15.2 32.9444 15.3 34.9444 15.3C36.8444 15.3 38.6444 15.2 40.4444 15.1C41.3444 15 42.3444 14.8 43.0444 14.3C43.3444 14.1 43.4443 13.9 43.6443 13.7C44.1443 13 44.4444 12.2 44.4444 10.5C44.4444 8.5 43.7444 7.6 42.9444 7Z" fill="url(#paint0_linear)"/>
<path d="M48.1443 15.4001H64.9443V12H52.7443V9.30005H64.3443V6.20006H52.7443V3.70006H64.9443V0.300049H48.1443V15.4001Z" fill="url(#paint1_linear)"/>
<path d="M87.1442 5.00002C87.1442 3.70002 87.0442 2.70003 86.1442 1.70003C85.5442 1.00003 84.7442 0.400024 82.7442 0.400024C82.3442 0.400024 81.9443 0.400024 81.4443 0.400024H68.8442V15.5H73.6442V11.6H81.4443C82.7443 11.6 84.5442 11.6 85.6442 10.7C87.3442 9.40003 87.1442 6.20002 87.1442 6.10002C87.1442 5.80002 87.1442 5.40002 87.1442 5.00002ZM82.2442 7.10002C81.8442 7.90002 81.2442 8.00002 80.2442 7.90002H73.5443V3.90002H80.5443C81.1443 4.00002 81.7443 4.00002 82.0443 4.40002C82.5443 4.90002 82.5443 5.90002 82.5443 6.00002C82.5443 6.50002 82.3442 6.90002 82.2442 7.10002Z" fill="url(#paint2_linear)"/>
<path d="M107.944 1.10005C106.744 0.100051 105.244 0.200048 103.744 0.300048H90.0444V15.4001H94.7444V11.6001H102.644C103.244 11.7001 103.844 11.7001 104.144 12.2001C104.344 12.6001 104.444 13.0001 104.444 13.4001V15.4001H109.144V12.8C109.144 12 109.144 11.3001 108.644 10.7001C107.944 9.80006 106.744 9.70006 105.444 9.70006C106.544 9.50006 108.044 9.30006 108.744 8.20006C108.944 7.90006 109.044 7.60004 109.144 7.50004C109.444 6.60004 109.444 5.20004 109.444 5.00004C109.444 4.80005 109.444 3.10004 108.844 2.00004C108.644 1.80004 108.444 1.50005 107.944 1.10005ZM104.044 7.60005C103.644 7.80005 103.144 7.80005 102.244 7.80005H94.8445V3.90005H102.644C103.344 3.90005 103.944 4.00005 104.344 4.40005C104.744 4.90005 104.744 5.90004 104.744 6.00004C104.744 6.10004 104.744 7.20005 104.044 7.60005Z" fill="url(#paint3_linear)"/>
<path d="M133.044 2.49994C132.144 0.899939 130.544 0.599939 129.944 0.499939C129.744 0.499939 129.444 0.399948 129.244 0.399948C127.044 0.299948 124.844 0.199951 122.744 0.199951C120.844 0.199951 119.044 0.299948 117.244 0.399948C116.344 0.499948 115.644 0.699945 114.844 1.09995C113.744 1.69995 113.244 2.69995 112.944 3.89995C112.944 4.09995 112.844 4.39995 112.844 4.59995L112.744 8.99994C112.744 10.8999 112.744 13.2999 114.644 14.4999C115.844 15.2999 117.144 15.3999 118.444 15.4999C120.144 15.4999 121.844 15.5999 123.644 15.5999C125.144 15.5999 126.644 15.5999 128.144 15.4999C129.844 15.3999 131.544 15.1999 132.744 13.7999C133.444 12.8999 133.644 11.9999 133.744 10.8999C133.744 10.1999 133.844 9.49994 133.844 8.79994C133.844 7.69994 133.844 6.59995 133.844 5.59995C133.644 4.39995 133.544 3.39994 133.044 2.49994ZM129.044 9.49994C128.944 10.1999 128.844 10.4999 128.644 10.8999C128.144 11.6999 127.244 11.7999 126.344 11.8999H120.244C118.944 11.7999 118.244 11.5999 117.844 11.0999C117.544 10.5999 117.444 9.69995 117.344 8.39995C117.344 7.19995 117.344 6.39995 117.444 5.89995C117.444 5.79995 117.544 5.39995 117.744 5.09995C117.844 4.99995 117.944 4.79994 118.244 4.49994C118.644 4.19994 119.044 4.09994 120.144 3.99994H126.544C127.744 4.09994 128.644 4.19995 128.944 5.39995C129.044 5.69995 129.044 5.99994 129.044 6.29994V9.49994Z" fill="url(#paint4_linear)"/>
<path d="M154.744 7C154.244 6.6 153.744 6.4 152.544 6.3L143.544 6C142.944 6 142.444 5.90001 142.044 5.40001C141.944 5.30001 141.744 5.10001 141.744 4.70001C141.744 4.40001 141.944 4.1 142.044 4C142.444 3.5 142.944 3.5 143.544 3.5C144.444 3.5 145.244 3.40001 146.144 3.40001C147.244 3.40001 148.344 3.4 149.444 3.5C150.644 3.6 150.844 3.80001 151.144 4.90001H155.744C155.744 3.60001 155.744 2.2 154.744 1.3C153.944 0.600003 152.844 0.400003 152.544 0.300003L151.744 0.200012C149.944 0.100012 148.144 0 146.344 0C144.744 0 143.044 0.100006 141.444 0.100006C140.144 0.200006 139.044 0.400003 138.144 1.3C137.844 1.6 137.644 1.9 137.544 2.3C137.144 3.3 137.144 4.9 137.144 5C137.144 6.5 137.544 7.5 138.044 8C138.744 8.8 139.844 9 140.144 9C140.344 9 140.544 9.10001 140.844 9.10001C141.544 9.10001 142.244 9.20001 142.944 9.20001C145.144 9.30001 147.344 9.30001 149.544 9.40001C150.644 9.50001 151.044 9.5 151.444 10C151.644 10.3 151.644 10.5 151.644 10.7C151.644 11.2 151.244 11.7 150.744 11.9C150.244 12.1 149.644 12 149.444 12C148.444 12 147.344 12.1 146.344 12C145.344 12 144.444 11.9 143.444 11.9C142.444 11.8 142.044 11.6 141.844 11.1C141.744 10.8 141.744 10.6 141.744 10.2H137.044C137.044 11.3 137.044 13 137.844 13.9C138.544 14.7 139.744 14.9 140.744 15.1C142.744 15.2 144.744 15.3 146.744 15.3C148.644 15.3 150.444 15.2 152.244 15.1C153.144 15 154.144 14.8 154.844 14.3C155.144 14.1 155.244 13.9 155.444 13.7C155.944 13 156.244 12.2 156.244 10.5C156.244 8.5 155.544 7.6 154.744 7Z" fill="url(#paint5_linear)"/>
<path d="M178.144 6.10002C178.144 5.70002 178.144 5.40002 178.144 5.00002C178.144 3.70002 178.044 2.70003 177.144 1.70003C176.544 1.00003 175.744 0.400024 173.744 0.400024C173.344 0.400024 172.944 0.400024 172.444 0.400024H159.844V15.5H164.644V11.6H172.444C173.744 11.6 175.544 11.6 176.644 10.7C178.344 9.50003 178.144 6.30002 178.144 6.10002ZM173.244 7.10002C172.844 7.90002 172.244 8.00002 171.244 7.90002H164.544V3.90002H171.544C172.144 4.00002 172.744 4.00002 173.044 4.40002C173.544 4.90002 173.544 5.90002 173.544 6.00002C173.544 6.50002 173.444 6.90002 173.244 7.10002Z" fill="url(#paint6_linear)"/>
<path d="M9.04443 16.9999C5.94443 16.9999 3.84444 16.8999 3.24444 16.7999C0.544444 16.0999 -0.0555684 13.3999 0.0444316 11.9999C0.0444316 11.5999 0.0444316 7.59994 0.0444316 4.49994C0.0444316 1.09994 3.24442 0.199951 4.84442 0.199951C9.94442 0.199951 11.4444 0.199951 12.8444 0.199951C13.5444 0.199951 14.2445 0.199951 15.4445 0.199951C18.7445 0.199951 20.3444 2.39994 20.5444 4.29994C20.6444 4.89994 20.5444 8.39995 20.5444 9.89995H18.5444C18.5444 7.59995 18.6444 4.99995 18.5444 4.59995C18.4444 3.99995 17.9445 2.19995 15.4445 2.19995C14.3445 2.19995 13.5444 2.19995 12.8444 2.19995C11.3444 2.19995 9.84442 2.19995 4.84442 2.19995C4.54442 2.19995 2.04443 2.29994 2.04443 4.49994C2.04443 7.69994 2.04443 11.8999 2.04443 11.9999C2.04443 12.1999 1.94444 14.3 3.74444 14.7C3.94444 14.7 5.74444 14.9999 14.7444 14.7999V16.7999C12.5444 16.9999 10.6444 16.9999 9.04443 16.9999Z" fill="url(#paint7_linear)"/>
<path d="M10.4445 27.8999C9.24447 27.8999 8.54446 27.8999 7.74446 27.8999C7.04446 27.8999 6.34442 27.8999 5.14442 27.8999C1.84442 27.8999 0.244444 25.6999 0.0444444 23.7999C-0.0555556 23.1999 0.0444444 19.6999 0.0444444 18.1999H2.04444C2.04444 20.4999 1.94444 23.0999 2.04444 23.4999C2.14444 24.0999 2.64442 25.8999 5.14442 25.8999C6.24442 25.8999 7.04446 25.8999 7.74446 25.8999C9.24446 25.8999 10.7445 25.8999 15.7445 25.8999C16.0445 25.8999 18.5444 25.7999 18.5444 23.5999C18.5444 20.3999 18.5444 16.1999 18.5444 16.0999C18.5444 15.8999 18.6444 13.7999 16.8444 13.3999C16.6444 13.3999 14.8444 13.0999 5.84443 13.2999V11.2999C12.2444 11.1999 16.4445 11.1999 17.4445 11.4999C20.1445 12.1999 20.7444 14.8999 20.6444 16.2999C20.6444 16.6999 20.6444 20.6999 20.6444 23.7999C20.6444 27.1999 17.4444 28.0999 15.8444 28.0999C13.2444 27.8999 11.6445 27.8999 10.4445 27.8999Z" fill="url(#paint8_linear)"/>
<defs>
<linearGradient id="paint0_linear" x1="25.2045" y1="7.854" x2="178.176" y2="7.854" gradientUnits="userSpaceOnUse">
<stop stop-color="#231B19"/>
<stop offset="1" stop-color="#FF271D"/>
</linearGradient>
<linearGradient id="paint1_linear" x1="25.2043" y1="7.85405" x2="178.176" y2="7.85405" gradientUnits="userSpaceOnUse">
<stop stop-color="#231B19"/>
<stop offset="1" stop-color="#FF271D"/>
</linearGradient>
<linearGradient id="paint2_linear" x1="25.2044" y1="7.85402" x2="178.175" y2="7.85402" gradientUnits="userSpaceOnUse">
<stop stop-color="#231B19"/>
<stop offset="1" stop-color="#FF271D"/>
</linearGradient>
<linearGradient id="paint3_linear" x1="25.2045" y1="7.85405" x2="178.176" y2="7.85405" gradientUnits="userSpaceOnUse">
<stop stop-color="#231B19"/>
<stop offset="1" stop-color="#FF271D"/>
</linearGradient>
<linearGradient id="paint4_linear" x1="25.2041" y1="7.85395" x2="178.176" y2="7.85395" gradientUnits="userSpaceOnUse">
<stop stop-color="#231B19"/>
<stop offset="1" stop-color="#FF271D"/>
</linearGradient>
<linearGradient id="paint5_linear" x1="25.2048" y1="7.854" x2="178.176" y2="7.854" gradientUnits="userSpaceOnUse">
<stop stop-color="#231B19"/>
<stop offset="1" stop-color="#FF271D"/>
</linearGradient>
<linearGradient id="paint6_linear" x1="25.2051" y1="7.85402" x2="178.176" y2="7.85402" gradientUnits="userSpaceOnUse">
<stop stop-color="#231B19"/>
<stop offset="1" stop-color="#FF271D"/>
</linearGradient>
<linearGradient id="paint7_linear" x1="-0.0482683" y1="8.55795" x2="20.6232" y2="8.55795" gradientUnits="userSpaceOnUse">
<stop stop-color="#231B19"/>
<stop offset="1" stop-color="#FF271D"/>
</linearGradient>
<linearGradient id="paint8_linear" x1="-0.0486555" y1="19.5112" x2="20.6226" y2="19.5112" gradientUnits="userSpaceOnUse">
<stop stop-color="#231B19"/>
<stop offset="1" stop-color="#FF271D"/>
</linearGradient>
</defs>
</svg>
